<?xml version="1.0" encoding="utf-8"?>
<!-- Generator: Adobe Illustrator 16.0.0, SVG Export Plug-In . SVG Version: 6.00 Build 0)  -->
<!DOCTYPE svg PUBLIC "-//W3C//DTD SVG 1.1//EN" "http://www.w3.org/Graphics/SVG/1.1/DTD/svg11.dtd">
<svg version="1.1" id="Layer_1" xmlns="http://www.w3.org/2000/svg" xmlns:xlink="http://www.w3.org/1999/xlink" x="0px" y="0px"
	 width="600px" height="400px" viewBox="-113.2 -300 600 400" enable-background="new -113.2 -300 600 400" xml:space="preserve">
<g>
	<path fill="#FFFFFF" d="M-62.7-47.7h-22.5v-50.2c0-9.2,2.4-16.7,7.2-22.5c2.8-3.3,6.3-6,10.6-8c4.3-2,8.7-3,13.2-3
		c9,0,16.5,3,22.7,9c6.1,6,9.2,13.4,9.2,22.2c0,8.5-3.1,15.9-9.2,22.1c-6.1,6.2-13.3,9.3-21.7,9.3c-1.4,0-3.4-0.1-6-0.4V-94
		c1.8,1.5,3.7,2.2,5.5,2.2c2.3,0,4.3-0.9,6-2.6c1.7-1.7,2.5-3.8,2.5-6.1c0-2.4-0.9-4.4-2.6-6.1c-1.7-1.7-3.8-2.5-6.2-2.5
		c-5.8,0-8.7,4-8.7,12V-47.7z"/>
	<path fill="#FFFFFF" d="M20.9-92.5v23.3c-1.8,0.3-3.5,0.5-5.1,0.5c-9,0-16.6-3-22.6-8.9c-6-5.9-9-13.4-9-22.4
		c0-8.7,3-16.1,9.1-22.2c6.1-6.1,13.5-9.1,22.2-9.1c9.7,0,17.4,2.8,23,8.5c5.6,5.7,8.4,13.5,8.4,23.3V-70H24.4v-27.8
		c0-3.2-0.8-5.7-2.3-7.6c-1.5-1.9-3.6-2.8-6.2-2.8c-2.4,0-4.4,0.9-6.1,2.6c-1.7,1.7-2.6,3.8-2.6,6.1c0,2.5,0.8,4.5,2.4,6.1
		c1.6,1.6,3.6,2.4,6,2.4C17.4-91,19.2-91.5,20.9-92.5z"/>
	<path fill="#FFFFFF" d="M75.2-152.3v23h10.1v23.8H75.2c0,4.8,0.8,8.1,2.3,9.9s4.3,2.7,8.3,2.7v23.7c-1.2,0-2,0.1-2.6,0.1
		c-5.1,0-9.9-1.2-14.4-3.6c-4.5-2.4-8.1-5.6-10.9-9.6c-3.5-5.2-5.2-12.1-5.2-20.6v-49.4H75.2z"/>
	<path fill="#FFFFFF" d="M119-152.3v25.1c3.8-2.8,7.6-4.2,11.5-4.2c5.8,0,10.4,2.1,13.8,6.3c3.4,4.2,5.1,9.8,5.1,16.9V-70h-22.5
		v-31.8c0-2.6-0.3-4.3-0.8-5.2c-0.5-0.9-1.6-1.3-3.2-1.3c-2.5,0-3.8,1.9-3.8,5.6V-70H96.4v-82.3H119z"/>
	<path fill="#FFFFFF" d="M157.5-129.2h22.5v32.4c0,2.5,0.3,4.3,0.8,5.3c0.5,1,1.5,1.5,2.8,1.5c2.5,0,3.8-2.2,3.8-6.8v-32.4H210v32.4
		c0,2.5,0.3,4.3,0.8,5.3c0.5,1,1.5,1.5,2.9,1.5c2.5,0,3.7-2.2,3.7-6.8v-32.4H240v37c0,6.8-2.3,12.5-6.8,17.2
		c-4.5,4.7-10,7.1-16.5,7.1c-6.7,0-12.7-2.8-18-8.4c-5.9,5.6-11.8,8.4-17.7,8.4c-7.5,0-13.5-2.7-18.1-8.2
		c-3.6-4.3-5.4-10.5-5.4-18.6V-129.2z"/>
	<path fill="#FFFFFF" d="M279.2-131.3c8.5,0,15.8,3.1,21.9,9.2c6.1,6.1,9.1,13.5,9.1,22c0,8.7-3.1,16.1-9.3,22.2
		c-6.2,6.1-13.6,9.2-22.3,9.2c-8.7,0-16.2-3.1-22.4-9.2c-6.2-6.1-9.3-13.5-9.3-22.2c0-8.8,3.1-16.2,9.3-22.2
		C262.5-128.3,270.1-131.3,279.2-131.3z M278.6-109.1c-2.4,0-4.5,0.9-6.1,2.6s-2.5,3.9-2.5,6.4c0,2.5,0.9,4.6,2.6,6.4
		c1.7,1.8,3.7,2.7,6.1,2.7c2.4,0,4.5-0.9,6.2-2.7c1.7-1.8,2.6-3.9,2.6-6.4c0-2.5-0.8-4.7-2.5-6.4
		C283.1-108.2,281.1-109.1,278.6-109.1z"/>
	<path fill="#FFFFFF" d="M350.2-130.7v24.1c-1.6-0.9-3-1.3-4.3-1.3c-4.1,0-6.1,3.1-6.1,9.4V-70h-22.5v-32.9c0-8.7,2.4-15.6,7.1-20.8
		c4.7-5.2,11.1-7.7,19-7.7C345.1-131.3,347.4-131.1,350.2-130.7z"/>
	<path fill="#FFFFFF" d="M379.3-152.3V-70h-22.5v-82.3H379.3z M413.9-130.1l-11,21.9L419.3-70h-25l-14.1-39.2l10.2-20.9H413.9z"/>
	<path fill="#FFFFFF" d="M468.4-129.2v23.8c-3.2,0-5.4,0.6-6.5,1.8c-1.2,1.2-1.9,3.5-2.3,7c-1,11.6-5.5,19.8-13.5,24.6
		c-4.2,2.5-10.2,3.7-18,3.7H425v-23.9h1c3.6,0,6.2-0.8,7.7-2.3c1.5-1.5,2.4-4.1,2.7-7.9c0.3-6.1,0.9-10.5,1.7-13
		c0.8-2.5,2.5-5,5-7.4c4.4-4.3,10.5-6.5,18.4-6.5H468.4z"/>
</g>
</svg>
